<svg width="34" height="32" viewBox="0 0 34 32" fill="none" xmlns="http://www.w3.org/2000/svg">
<path d="M31.96 0L18.82 9.72L21.27 3.99L31.96 0Z" fill="#E17726" stroke="#E17726" stroke-width="0.25" stroke-linecap="round" stroke-linejoin="round"/>
<path d="M1.66 0L14.68 9.8L12.35 4L1.66 0ZM27.23 22.53L23.73 27.87L31.22 29.93L33.36 22.65L27.23 22.53V22.53ZM0.27 22.65L2.4 29.93L9.87 27.87L6.39 22.53L0.27 22.65V22.65Z" fill="#E27625" stroke="#E27625" stroke-width="0.25" stroke-linecap="round" stroke-linejoin="round"/>
<path d="M9.47 13.51L7.39 16.65L14.79 16.99L14.55 9.02L9.47 13.52V13.51ZM24.15 13.52L18.99 8.92L18.82 16.99L26.22 16.65L24.15 13.52V13.52ZM9.87 27.87L14.36 25.71L10.5 22.71L9.87 27.87ZM19.27 25.7L23.73 27.87L23.13 22.7L19.27 25.7Z" fill="#E27625" stroke="#E27625" stroke-width="0.25" stroke-linecap="round" stroke-linejoin="round"/>
<path d="M23.73 27.87L19.27 25.71L19.63 28.61L19.59 29.84L23.73 27.87ZM9.87 27.87L14.03 29.84L14 28.61L14.36 25.71L9.87 27.87Z" fill="#D5BFB2" stroke="#D5BFB2" stroke-width="0.25" stroke-linecap="round" stroke-linejoin="round"/>
<path d="M14.1 20.78L10.4 19.7L13.02 18.5L14.11 20.78H14.1ZM19.51 20.78L20.61 18.49L23.24 19.69L19.51 20.79V20.78Z" fill="#233447" stroke="#233447" stroke-width="0.25" stroke-linecap="round" stroke-linejoin="round"/>
<path d="M9.87 27.87L10.52 22.53L6.39 22.65L9.87 27.87ZM23.1 22.53L23.73 27.87L27.23 22.65L23.1 22.53ZM26.23 16.65L18.83 16.99L19.51 20.79L20.61 18.49L23.24 19.69L26.23 16.65V16.65ZM10.4 19.7L13.02 18.5L14.11 20.78L14.8 16.98L7.4 16.65L10.4 19.7V19.7Z" fill="#CC6228" stroke="#CC6228" stroke-width="0.25" stroke-linecap="round" stroke-linejoin="round"/>
<path d="M7.4 16.65L10.5 22.7L10.4 19.7L7.4 16.65ZM23.24 19.7L23.12 22.7L26.22 16.65L23.24 19.7ZM14.8 16.99L14.1 20.79L14.98 25.27L15.18 19.36L14.8 16.99ZM18.82 16.99L18.46 19.35L18.64 25.27L19.51 20.78L18.82 16.98V16.99Z" fill="#E27525" stroke="#E27525" stroke-width="0.25" stroke-linecap="round" stroke-linejoin="round"/>
<path d="M19.51 20.78L18.64 25.27L19.27 25.71L23.12 22.71L23.24 19.7L19.51 20.78ZM10.4 19.7L10.5 22.7L14.36 25.7L14.98 25.27L14.11 20.78L10.39 19.7H10.4Z" fill="#F5841F" stroke="#F5841F" stroke-width="0.25" stroke-linecap="round" stroke-linejoin="round"/>
<path d="M19.6 29.84L19.63 28.61L19.29 28.33H14.33L14 28.61L14.03 29.84L9.87 27.87L11.33 29.07L14.28 31.1H19.33L22.29 29.06L23.73 27.87L19.59 29.84H19.6Z" fill="#C0AC9D" stroke="#C0AC9D" stroke-width="0.25" stroke-linecap="round" stroke-linejoin="round"/>
<path d="M19.27 25.7L18.64 25.27H14.98L14.36 25.71L14 28.61L14.33 28.33H19.29L19.63 28.61L19.27 25.71V25.7Z" fill="#161616" stroke="#161616" stroke-width="0.25" stroke-linecap="round" stroke-linejoin="round"/>
<path d="M32.52 10.35L33.62 5L31.96 0L19.26 9.4L24.15 13.51L31.05 15.52L32.57 13.75L31.91 13.27L32.96 12.31L32.16 11.69L33.21 10.89L32.51 10.35H32.52ZM0 4.99L1.12 10.35L0.4 10.88L1.47 11.68L0.67 12.31L1.71 13.27L1.05 13.75L2.57 15.52L9.47 13.52L14.36 9.39L1.66 0L0 4.99Z" fill="#763E1A" stroke="#763E1A" stroke-width="0.25" stroke-linecap="round" stroke-linejoin="round"/>
<path d="M31.05 15.52L24.15 13.52L26.23 16.65L23.13 22.7L27.23 22.65H33.36L31.05 15.52ZM9.47 13.51L2.57 15.52L0.27 22.65H6.4L10.5 22.7L7.4 16.65L9.48 13.51H9.47ZM18.82 16.99L19.27 9.39L21.27 3.99H12.35L14.35 9.39L14.8 16.99L14.97 19.37V25.27H18.64L18.66 19.37L18.82 16.99Z" fill="#F5841F" stroke="#F5841F" stroke-width="0.25" stroke-linecap="round" stroke-linejoin="round"/>
</svg>
